# TheTroyGame authored Late Bronze Age round hide shield candidate
o AegeanRoundShield
v 0.000000 0.000000 0.120000
v 0.000000 0.000000 -0.042000
v 0.520000 0.000000 0.078000
v 0.450333 0.260000 0.078000
v 0.260000 0.450333 0.078000
v 0.000000 0.520000 0.078000
v -0.260000 0.450333 0.078000
v -0.450333 0.260000 0.078000
v -0.520000 0.000000 0.078000
v -0.450333 -0.260000 0.078000
v -0.260000 -0.450333 0.078000
v 0.000000 -0.520000 0.078000
v 0.260000 -0.450333 0.078000
v 0.450333 -0.260000 0.078000
v 0.520000 0.000000 -0.042000
v 0.450333 0.260000 -0.042000
v 0.260000 0.450333 -0.042000
v 0.000000 0.520000 -0.042000
v -0.260000 0.450333 -0.042000
v -0.450333 0.260000 -0.042000
v -0.520000 0.000000 -0.042000
v -0.450333 -0.260000 -0.042000
v -0.260000 -0.450333 -0.042000
v 0.000000 -0.520000 -0.042000
v 0.260000 -0.450333 -0.042000
v 0.450333 -0.260000 -0.042000
v 0.000000 0.000000 0.175000
v 0.110000 0.000000 0.086400
v 0.077782 0.077782 0.086400
v 0.000000 0.110000 0.086400
v -0.077782 0.077782 0.086400
v -0.110000 0.000000 0.086400
v -0.077782 -0.077782 0.086400
v 0.000000 -0.110000 0.086400
v 0.077782 -0.077782 0.086400
f 1 3 4
f 1 4 5
f 1 5 6
f 1 6 7
f 1 7 8
f 1 8 9
f 1 9 10
f 1 10 11
f 1 11 12
f 1 12 13
f 1 13 14
f 1 14 3
f 2 16 15
f 2 17 16
f 2 18 17
f 2 19 18
f 2 20 19
f 2 21 20
f 2 22 21
f 2 23 22
f 2 24 23
f 2 25 24
f 2 26 25
f 2 15 26
f 3 15 16 4
f 4 16 17 5
f 5 17 18 6
f 6 18 19 7
f 7 19 20 8
f 8 20 21 9
f 9 21 22 10
f 10 22 23 11
f 11 23 24 12
f 12 24 25 13
f 13 25 26 14
f 14 26 15 3
f 27 28 29
f 27 29 30
f 27 30 31
f 27 31 32
f 27 32 33
f 27 33 34
f 27 34 35
f 27 35 28
