# TheTroyGame authored Late Bronze Age boar-tusk-inspired helmet candidate
# Static low-poly production candidate; not an archaeological scan.
o BoarTuskHelmetCandidate
v 0.000 0.260 0.000
v 0.180 0.180 0.000
v 0.127 0.180 0.127
v 0.000 0.180 0.180
v -0.127 0.180 0.127
v -0.180 0.180 0.000
v -0.127 0.180 -0.127
v 0.000 0.180 -0.180
v 0.127 0.180 -0.127
v 0.220 0.000 0.000
v 0.156 0.000 0.156
v 0.000 0.000 0.220
v -0.156 0.000 0.156
v -0.220 0.000 0.000
v -0.156 0.000 -0.156
v 0.000 0.000 -0.220
v 0.156 0.000 -0.156
v 0.175 -0.160 0.000
v 0.124 -0.160 0.124
v 0.000 -0.160 0.175
v -0.124 -0.160 0.124
v -0.175 -0.160 0.000
v -0.124 -0.160 -0.124
v 0.000 -0.160 -0.175
v 0.124 -0.160 -0.124
v -0.240 -0.070 0.080
v -0.300 -0.220 0.070
v -0.170 -0.120 0.110
v 0.240 -0.070 0.080
v 0.300 -0.220 0.070
v 0.170 -0.120 0.110
f 1 2 3
f 1 3 4
f 1 4 5
f 1 5 6
f 1 6 7
f 1 7 8
f 1 8 9
f 1 9 2
f 2 10 11 3
f 3 11 12 4
f 4 12 13 5
f 5 13 14 6
f 6 14 15 7
f 7 15 16 8
f 8 16 17 9
f 9 17 10 2
f 10 18 19 11
f 11 19 20 12
f 12 20 21 13
f 13 21 22 14
f 14 22 23 15
f 15 23 24 16
f 16 24 25 17
f 17 25 18 10
f 26 27 28
f 29 31 30
