# TheTroyGame authored Late Bronze Age Dendra-inspired cuirass candidate
# Static low-poly production candidate; not an archaeological scan.
o DendraCuirassCandidate
v -0.390 0.330 0.180
v 0.390 0.330 0.180
v -0.350 -0.330 0.150
v 0.350 -0.330 0.150
v -0.390 0.330 -0.180
v 0.390 0.330 -0.180
v -0.350 -0.330 -0.150
v 0.350 -0.330 -0.150
v -0.520 0.250 0.100
v -0.390 0.250 0.150
v -0.520 0.050 0.070
v -0.390 0.050 0.130
v 0.520 0.250 0.100
v 0.390 0.250 0.150
v 0.520 0.050 0.070
v 0.390 0.050 0.130
v -0.300 -0.330 0.120
v -0.180 -0.540 0.080
v -0.060 -0.330 0.120
v 0.060 -0.330 0.120
v 0.180 -0.540 0.080
v 0.300 -0.330 0.120
v -0.300 -0.330 -0.120
v -0.180 -0.540 -0.080
v -0.060 -0.330 -0.120
v 0.060 -0.330 -0.120
v 0.180 -0.540 -0.080
v 0.300 -0.330 -0.120
f 1 2 4 3
f 5 7 8 6
f 1 5 6 2
f 3 4 8 7
f 1 3 7 5
f 2 6 8 4
f 9 10 12 11
f 13 15 16 14
f 9 11 12 10
f 13 14 16 15
f 17 18 19
f 20 21 22
f 23 25 24
f 26 28 27
f 17 23 24 18
f 18 24 25 19
f 20 26 27 21
f 21 27 28 22
