# TheTroyGame authored Late Bronze Age figure-eight/tower hide shield candidate
o FigureEightTowerShield
v 0.210800 0.000000 0.090000
v 0.253026 0.400011 0.090000
v 0.128006 0.665193 0.090000
v 0.000000 0.720000 0.090000
v -0.128006 0.665193 0.090000
v -0.253026 0.400011 0.090000
v -0.210800 0.000000 0.090000
v -0.253026 -0.400011 0.090000
v -0.128006 -0.665193 0.090000
v 0.000000 -0.720000 0.090000
v 0.128006 -0.665193 0.090000
v 0.253026 -0.400011 0.090000
v 0.210800 0.000000 -0.090000
v 0.253026 0.400011 -0.090000
v 0.128006 0.665193 -0.090000
v 0.000000 0.720000 -0.090000
v -0.128006 0.665193 -0.090000
v -0.253026 0.400011 -0.090000
v -0.210800 0.000000 -0.090000
v -0.253026 -0.400011 -0.090000
v -0.128006 -0.665193 -0.090000
v 0.000000 -0.720000 -0.090000
v 0.128006 -0.665193 -0.090000
v 0.253026 -0.400011 -0.090000
v 0.000000 0.000000 0.090000
v 0.000000 0.000000 -0.090000
v -0.035000 -0.620000 0.105000
v 0.035000 -0.620000 0.105000
v 0.035000 0.620000 0.105000
v -0.035000 0.620000 0.105000
v -0.028000 -0.620000 0.145000
v 0.028000 -0.620000 0.145000
v 0.028000 0.620000 0.145000
v -0.028000 0.620000 0.145000
f 25 1 2
f 25 2 3
f 25 3 4
f 25 4 5
f 25 5 6
f 25 6 7
f 25 7 8
f 25 8 9
f 25 9 10
f 25 10 11
f 25 11 12
f 25 12 1
f 26 14 13
f 26 15 14
f 26 16 15
f 26 17 16
f 26 18 17
f 26 19 18
f 26 20 19
f 26 21 20
f 26 22 21
f 26 23 22
f 26 24 23
f 26 13 24
f 1 13 14 2
f 2 14 15 3
f 3 15 16 4
f 4 16 17 5
f 5 17 18 6
f 6 18 19 7
f 7 19 20 8
f 8 20 21 9
f 9 21 22 10
f 10 22 23 11
f 11 23 24 12
f 12 24 13 1
f 27 28 29 30
f 31 34 33 32
f 27 31 32 28
f 28 32 33 29
f 29 33 34 30
f 30 34 31 27
